<svg xmlns="http://www.w3.org/2000/svg" viewBox="0 0 512 512">
  <defs>
    <linearGradient id="bg" x1="72" y1="48" x2="440" y2="464" gradientUnits="userSpaceOnUse">
      <stop stop-color="#FFF9EF"/>
      <stop offset="1" stop-color="#EFE3D2"/>
    </linearGradient>
  </defs>
  <rect x="20" y="20" width="472" height="472" rx="112" fill="url(#bg)"/>
  <rect x="31" y="31" width="450" height="450" rx="101" fill="none" stroke="#D7BE98" stroke-width="10"/>
  <path d="M256 356c-42-31-79-43-127-37V170c48-6 85 6 127 37 42-31 79-43 127-37v149c-48-6-85 6-127 37Z" fill="#FFFDF8" stroke="#627A65" stroke-width="18" stroke-linejoin="round"/>
  <path d="M256 207v149" fill="none" stroke="#627A65" stroke-width="14" stroke-linecap="round"/>
  <path d="M256 142v-55M228 114h56" fill="none" stroke="#A86E54" stroke-width="18" stroke-linecap="round"/>
  <path d="M256 407c-11-12-45-34-45-62 0-19 13-32 29-32 8 0 13 3 16 7 3-4 8-7 16-7 16 0 29 13 29 32 0 28-34 50-45 62Z" fill="#C98B76"/>
</svg>
